<svg xmlns="http://www.w3.org/2000/svg" viewBox="0 0 24 24" fill="#000">
  <path d="M16.89 13.53c.03 3.05 2.7 4.07 2.73 4.09-.02.07-.43 1.47-1.43 2.92-.86 1.22-1.75 2.43-3.15 2.46-1.38.02-1.82-.8-3.39-.8-1.56 0-2.05.78-3.34.82-1.34.05-2.36-1.32-3.23-2.53-1.76-2.42-3.1-6.84-1.3-9.83.9-1.48 2.5-2.42 4.23-2.45 1.32-.03 2.57.89 3.39.89.82 0 2.33-1.1 3.94-.94.67.03 2.55.27 3.74 2.07-0.1.06-2.21 1.29-2.19 3.3zM14.13 4.57c.72-.87 1.2-2.08 1.07-3.27-1.03.04-2.27.69-3.01 1.54-.66.76-1.24 2.01-1.09 3.18 1.15.09 2.31-.59 3.03-1.45z"></path>
</svg>
