<svg xmlns="http://www.w3.org/2000/svg" viewBox="0 0 24 24" fill="#181717">
  <path d="M12 .5C5.65.5.5 5.65.5 12c0 5.1 3.29 9.43 7.86 10.96.58.1.79-.25.79-.56v-2.1c-3.2.7-3.87-1.39-3.87-1.39-.53-1.35-1.3-1.71-1.3-1.71-1.06-.72.08-.71.08-.71 1.17.08 1.78 1.21 1.78 1.21 1.04 1.78 2.74 1.26 3.41.96.1-.76.41-1.26.74-1.55-2.55-.29-5.23-1.28-5.23-5.71 0-1.26.45-2.3 1.2-3.12-.12-.3-.52-1.52.11-3.17 0 0 .97-.31 3.18 1.19a11 11 0 0 1 5.8 0c2.21-1.5 3.18-1.19 3.18-1.19.63 1.65.23 2.87.11 3.17.75.82 1.2 1.86 1.2 3.12 0 4.44-2.69 5.42-5.25 5.71.42.36.8 1.08.8 2.19v3.25c0 .31.21.66.8.55A10.99 10.99 0 0 0 23.5 12C23.5 5.65 18.35.5 12 .5z"></path>
</svg>
