<svg xmlns="http://www.w3.org/2000/svg" viewBox="0 0 48 48">
  <path fill="#EA4335" d="M24 9.5c3.54 0 6.71 1.22 9.21 3.6l6.84-6.84C35.9 2.38 30.47 0 24 0 14.62 0 6.51 5.38 2.69 13.22l7.94 6.17C12.69 13.35 17.9 9.5 24 9.5z"></path>
  <path fill="#4285F4" d="M46.1 24.55c0-1.57-.14-3.08-.41-4.55H24v9.02h12.65c-.54 2.81-2.14 5.19-4.53 6.78l7.02 5.46C43.78 37.06 46.1 31.22 46.1 24.55z"></path>
  <path fill="#FBBC05" d="M10.63 28.39a14.5 14.5 0 0 1 0-8.78l-7.94-6.17C-.96 17.72-.96 30.28 2.69 37.56l7.94-6.17z"></path>
  <path fill="#34A853" d="M24 47.5c6.48 0 11.93-2.13 15.9-5.74l-7.02-5.46c-2.05 1.38-4.71 2.2-8.88 2.2-6.11 0-11.32-4.86-12.74-11.42l-7.94 6.17C6.51 42.62 14.62 47.5 24 47.5z"></path>
</svg>
